<svg xmlns="http://www.w3.org/2000/svg" version="1.1" xmlns:xlink="http://www.w3.org/1999/xlink" xmlns:svgjs="http://svgjs.dev/svgjs" width="1440" height="560" preserveAspectRatio="none" viewBox="0 0 1440 560"><g mask="url(&quot;#SvgjsMask1495&quot;)" fill="none"><rect width="1440" height="560" x="0" y="0" fill="url(&quot;#SvgjsLinearGradient1496&quot;)"></rect><path d="M1440 0L1046.67 0L1440 152.89z" fill="rgba(255, 255, 255, .1)"></path><path d="M1046.67 0L1440 152.89L1440 249.57L701.4100000000001 0z" fill="rgba(255, 255, 255, .075)"></path><path d="M701.4100000000001 0L1440 249.57L1440 310.53999999999996L392.7000000000001 0z" fill="rgba(255, 255, 255, .05)"></path><path d="M392.70000000000005 0L1440 310.53999999999996L1440 342.18999999999994L193.51000000000005 0z" fill="rgba(255, 255, 255, .025)"></path><path d="M0 560L62.05 560L0 366.91999999999996z" fill="rgba(0, 0, 0, .1)"></path><path d="M0 366.91999999999996L62.05 560L78.05 560L0 363.65z" fill="rgba(0, 0, 0, .075)"></path><path d="M0 363.65L78.05 560L443.16 560L0 195.42999999999998z" fill="rgba(0, 0, 0, .05)"></path><path d="M0 195.42999999999995L443.16 560L896.56 560L0 72.22999999999995z" fill="rgba(0, 0, 0, .025)"></path></g><defs><mask id="SvgjsMask1495"><rect width="1440" height="560" fill="#ffffff"></rect></mask><linearGradient x1="15.28%" y1="-39.29%" x2="84.72%" y2="139.29%" gradientUnits="userSpaceOnUse" id="SvgjsLinearGradient1496"><stop stop-color="#0e2a47" offset="0"></stop><stop stop-color="rgba(80, 228, 255, 1)" offset="1"></stop></linearGradient></defs></svg>